<svg width="215" height="51" viewBox="0 0 215 51" fill="none" xmlns="http://www.w3.org/2000/svg">
<path d="M15.264 48.168C15.264 48.584 14.288 48.92 12.336 49.176C10.384 49.432 8.432 49.56 6.48 49.56C4.528 49.56 3.28 49.448 2.736 49.224C2.192 49 1.92 48.648 1.92 48.168V17.304C1.92 15.768 6.528 15 15.744 15C21.312 15 24.992 15.384 26.784 16.152C28.96 17.048 30.432 18.264 31.2 19.8C32.224 21.784 32.736 24.328 32.736 27.432C32.736 31.688 32 34.776 30.528 36.696C29.472 38.104 28.416 39.016 27.36 39.432C26.304 39.848 25.424 40.152 24.72 40.344C24.048 40.504 23.2 40.632 22.176 40.728C20.768 40.856 18.848 40.92 16.416 40.92L15.264 40.872V48.168ZM15.312 32.904H16.464C17.072 32.904 17.552 32.824 17.904 32.664C18.256 32.472 18.56 31.992 18.816 31.224C19.104 30.424 19.248 29.32 19.248 27.912C19.248 26.472 19.088 25.384 18.768 24.648C18.48 23.88 18.176 23.432 17.856 23.304C17.568 23.144 17.216 23.064 16.8 23.064H15.312V32.904ZM44.7375 49.992C41.8255 49.992 39.5375 49.304 37.8735 47.928C37.2015 47.352 36.6095 46.504 36.0975 45.384C35.6175 44.264 35.3775 42.952 35.3775 41.448C35.3775 39.944 35.7295 38.632 36.4335 37.512C37.1695 36.392 38.0495 35.528 39.0735 34.92C40.0975 34.312 41.2975 33.816 42.6735 33.432C44.7535 32.888 47.0415 32.616 49.5375 32.616H51.1215C51.1215 31.304 50.6735 30.376 49.7775 29.832C49.3935 29.608 48.8015 29.496 48.0015 29.496C47.2335 29.496 46.2895 29.704 45.1695 30.12C44.0815 30.536 43.1695 30.968 42.4335 31.416C41.6975 31.832 41.2015 32.04 40.9455 32.04C40.3695 32.04 39.5855 31.288 38.5935 29.784C37.6015 28.248 37.1055 26.856 37.1055 25.608C37.1055 25.192 37.6975 24.648 38.8815 23.976C40.0655 23.304 41.7295 22.696 43.8735 22.152C46.0495 21.576 48.1615 21.288 50.2095 21.288C52.2575 21.288 54.0175 21.464 55.4895 21.816C56.9935 22.136 58.2095 22.536 59.1375 23.016C60.0975 23.496 60.8975 24.136 61.5375 24.936C62.2095 25.736 62.7055 26.456 63.0255 27.096C63.3775 27.736 63.6335 28.568 63.7935 29.592C64.0175 30.776 64.1295 32.232 64.1295 33.96V48.408C64.1295 48.76 63.2655 49.048 61.5375 49.272C59.8415 49.464 58.1455 49.56 56.4495 49.56C54.7855 49.56 53.6975 49.512 53.1855 49.416C52.7055 49.32 52.4175 49.208 52.3215 49.08C52.2255 48.952 52.1455 48.728 52.0815 48.408L51.6975 45.672H51.3135C50.5135 48.552 48.3215 49.992 44.7375 49.992ZM51.1695 42.024V36.408C50.3375 36.408 49.6655 36.76 49.1535 37.464C48.6415 38.168 48.3855 38.968 48.3855 39.864C48.3855 41.976 48.8655 43.032 49.8255 43.032C50.2415 43.032 50.5615 42.936 50.7855 42.744C51.0415 42.52 51.1695 42.28 51.1695 42.024ZM103.925 48.408C103.509 49.176 101.333 49.56 97.3965 49.56C93.4925 49.56 91.4605 49.176 91.3005 48.408L89.6685 39.672H88.9965L87.4605 48.408C87.3645 49.176 84.5645 49.56 79.0605 49.56C77.5245 49.56 76.5005 49.48 75.9885 49.32C75.5085 49.128 75.1725 48.824 74.9805 48.408C69.0285 33.784 66.0525 26.088 66.0525 25.32C66.0525 24.552 67.2045 23.768 69.5085 22.968C71.8445 22.136 74.0845 21.72 76.2285 21.72C78.9805 21.72 80.4045 22.456 80.5005 23.928L82.1325 37.08H82.7085L83.2845 26.472C83.3165 25.672 84.1325 24.968 85.7325 24.36C87.3325 23.752 88.9485 23.448 90.5805 23.448C92.2125 23.448 93.4285 23.656 94.2285 24.072C95.0605 24.456 95.4925 24.936 95.5245 25.512L96.0525 37.08H96.5805L98.1645 24.744C98.2605 23.976 99.3325 23.288 101.381 22.68C103.461 22.04 105.285 21.72 106.853 21.72C108.421 21.72 109.653 21.944 110.549 22.392C112.021 23.096 112.757 23.928 112.757 24.888C112.757 24.984 111.301 28.888 108.389 36.6C105.509 44.312 104.021 48.248 103.925 48.408ZM133.56 49.128C132.984 49.672 131.672 49.944 129.624 49.944C127.576 49.944 125.88 49.816 124.536 49.56C123.192 49.272 121.912 48.728 120.696 47.928C118.36 46.36 117.192 43.096 117.192 38.136V30.648H114.792C114.44 30.648 114.136 30.28 113.88 29.544C113.624 28.808 113.496 27.8 113.496 26.52C113.496 25.24 113.688 24.12 114.072 23.16C114.488 22.168 115.016 21.672 115.656 21.672H117.192V15.864C117.192 14.872 118.152 14.072 120.072 13.464C122.024 12.856 123.928 12.552 125.784 12.552C128.696 12.552 130.152 13.272 130.152 14.712V21.672H133.704C134.536 21.672 134.952 22.872 134.952 25.272C134.952 26.84 134.76 28.136 134.376 29.16C134.024 30.152 133.56 30.648 132.984 30.648H130.152V39.432C130.152 40.296 130.52 40.92 131.256 41.304C131.992 41.656 132.632 41.832 133.176 41.832C133.752 41.832 134.104 42.104 134.232 42.648C134.36 43.192 134.424 44.008 134.424 45.096C134.424 47.24 134.136 48.584 133.56 49.128ZM146.972 49.992C144.06 49.992 141.772 49.304 140.108 47.928C139.436 47.352 138.844 46.504 138.332 45.384C137.852 44.264 137.612 42.952 137.612 41.448C137.612 39.944 137.964 38.632 138.668 37.512C139.404 36.392 140.284 35.528 141.308 34.92C142.332 34.312 143.532 33.816 144.908 33.432C146.988 32.888 149.276 32.616 151.772 32.616H153.356C153.356 31.304 152.908 30.376 152.012 29.832C151.628 29.608 151.036 29.496 150.236 29.496C149.468 29.496 148.524 29.704 147.404 30.12C146.316 30.536 145.404 30.968 144.668 31.416C143.932 31.832 143.436 32.04 143.18 32.04C142.604 32.04 141.82 31.288 140.828 29.784C139.836 28.248 139.34 26.856 139.34 25.608C139.34 25.192 139.932 24.648 141.116 23.976C142.3 23.304 143.964 22.696 146.108 22.152C148.284 21.576 150.396 21.288 152.444 21.288C154.492 21.288 156.252 21.464 157.724 21.816C159.228 22.136 160.444 22.536 161.372 23.016C162.332 23.496 163.132 24.136 163.772 24.936C164.444 25.736 164.94 26.456 165.26 27.096C165.612 27.736 165.868 28.568 166.028 29.592C166.252 30.776 166.364 32.232 166.364 33.96V48.408C166.364 48.76 165.5 49.048 163.772 49.272C162.076 49.464 160.38 49.56 158.684 49.56C157.02 49.56 155.932 49.512 155.42 49.416C154.94 49.32 154.652 49.208 154.556 49.08C154.46 48.952 154.38 48.728 154.316 48.408L153.932 45.672H153.548C152.748 48.552 150.556 49.992 146.972 49.992ZM153.404 42.024V36.408C152.572 36.408 151.9 36.76 151.388 37.464C150.876 38.168 150.62 38.968 150.62 39.864C150.62 41.976 151.1 43.032 152.06 43.032C152.476 43.032 152.796 42.936 153.02 42.744C153.276 42.52 153.404 42.28 153.404 42.024ZM182.687 14.328V48.408C182.687 48.76 181.775 49.048 179.951 49.272C178.127 49.464 176.239 49.56 174.287 49.56C172.367 49.56 171.119 49.48 170.543 49.32C169.999 49.128 169.727 48.824 169.727 48.408V15.192C169.727 14.488 170.623 13.8 172.415 13.128C174.239 12.456 176.191 12.12 178.271 12.12C181.215 12.12 182.687 12.856 182.687 14.328ZM198.999 48.408C198.999 48.76 198.103 49.048 196.311 49.272C194.519 49.464 192.647 49.56 190.695 49.56C188.743 49.56 187.479 49.48 186.903 49.32C186.327 49.128 186.039 48.824 186.039 48.408V15.192C186.039 14.488 186.935 13.8 188.727 13.128C190.551 12.456 192.503 12.12 194.583 12.12C197.527 12.12 198.999 12.856 198.999 14.328V32.28H199.623C201.159 24.952 202.295 21.288 203.031 21.288C204.887 21.288 207.127 21.72 209.751 22.584C212.375 23.448 213.687 24.408 213.687 25.464C213.687 26.232 213.047 27.704 211.767 29.88C210.487 32.056 209.159 33.832 207.783 35.208C212.359 40.68 214.647 43.928 214.647 44.952C214.647 45.912 213.191 47.08 210.279 48.456C207.367 49.832 205.319 50.52 204.135 50.52C203.559 50.52 202.951 49.832 202.311 48.456C201.671 47.048 200.983 44.952 200.247 42.168L198.999 43.656V48.408Z" fill="#DF591F"/>
<path d="M78.9825 11.0898C75.6234 11.0334 72.8131 13.4846 72.7649 15.7611C72.7167 18.0376 75.5189 16.2472 78.878 16.3035C82.2371 16.3599 84.959 18.223 84.9913 16.0022C85.0235 13.7814 82.3973 11.1621 78.9825 11.0898ZM76.8734 9.4019C77.9162 9.33842 78.617 7.30878 78.5139 5.7725C78.4107 4.23622 77.4796 3.06593 76.4368 3.12941C75.3941 3.19289 74.6615 4.49021 74.7647 6.02649C74.8679 7.56278 75.8147 9.5211 76.8734 9.4019ZM81.0205 9.4425C82.0553 9.61782 83.2814 7.85891 83.5285 6.3625C83.8312 4.88201 83.2027 3.49687 82.1839 3.26584C81.1491 3.09052 80.0743 4.10918 79.8113 5.66131C79.5086 7.1418 79.9858 9.26718 81.0205 9.4425ZM86.7045 6.42679C85.7016 6.14004 84.5313 7.07112 84.1012 8.57546C83.671 10.0798 83.9811 12.1574 84.984 12.4442C85.9869 12.7309 87.3643 11.0755 87.7785 9.62688C88.2086 8.12254 87.7074 6.71354 86.7045 6.42679ZM71.4693 6.16914C70.4344 6.41569 69.9088 7.83246 70.3224 9.33696C70.6803 10.8255 72.0013 12.5292 73.0362 12.2826C74.071 12.0361 74.3819 9.89494 74.024 8.40636C73.6661 6.91779 72.5041 5.92258 71.4693 6.16914Z" fill="#DF591F"/>
<path d="M99.9825 11.0898C96.6234 11.0334 93.8131 13.4846 93.7649 15.7611C93.7167 18.0376 96.5189 16.2472 99.878 16.3035C103.237 16.3599 105.959 18.223 105.991 16.0022C106.024 13.7814 103.397 11.1621 99.9825 11.0898ZM97.8734 9.4019C98.9162 9.33842 99.617 7.30878 99.5139 5.7725C99.4107 4.23622 98.4796 3.06593 97.4368 3.12941C96.3941 3.19289 95.6615 4.49021 95.7647 6.02649C95.8679 7.56278 96.8147 9.5211 97.8734 9.4019ZM102.021 9.4425C103.055 9.61782 104.281 7.85891 104.528 6.3625C104.831 4.88201 104.203 3.49687 103.184 3.26584C102.149 3.09052 101.074 4.10918 100.811 5.66131C100.509 7.1418 100.986 9.26718 102.021 9.4425ZM107.704 6.42679C106.702 6.14004 105.531 7.07112 105.101 8.57546C104.671 10.0798 104.981 12.1574 105.984 12.4442C106.987 12.7309 108.364 11.0755 108.778 9.62688C109.209 8.12254 108.707 6.71354 107.704 6.42679ZM92.4693 6.16914C91.4344 6.41569 90.9088 7.83246 91.3224 9.33696C91.6803 10.8255 93.0013 12.5292 94.0362 12.2826C95.071 12.0361 95.3819 9.89494 95.024 8.40636C94.6661 6.91779 93.5041 5.92258 92.4693 6.16914Z" fill="#DF591F"/>
</svg>
