<svg width="18" height="15" viewBox="0 0 18 15" fill="none" xmlns="http://www.w3.org/2000/svg">
<path d="M8.9825 8.65146C5.62343 8.59509 2.81311 11.0462 2.76491 13.3227C2.71671 15.5992 5.51894 13.8088 8.87802 13.8652C12.2371 13.9215 14.959 15.7847 14.9913 13.5639C15.0236 11.3431 12.3973 8.72375 8.9825 8.65146ZM6.87345 6.96355C7.91621 6.90007 8.61707 4.87043 8.51389 3.33414C8.4107 1.79786 7.47962 0.627577 6.43686 0.691055C5.3941 0.754533 4.66154 2.05186 4.76472 3.58814C4.8679 5.12442 5.81476 7.08274 6.87345 6.96355ZM11.0206 7.00415C12.0553 7.17946 13.2815 5.42056 13.5285 3.92414C13.8313 2.44366 13.2027 1.05851 12.1839 0.827481C11.1491 0.652163 10.0743 1.67082 9.81137 3.22296C9.50861 4.70344 9.9858 6.82883 11.0206 7.00415ZM16.7045 3.98844C15.7016 3.70169 14.5313 4.63277 14.1012 6.13711C13.6711 7.64145 13.9811 9.71905 14.984 10.0058C15.9869 10.2925 17.3643 8.63715 17.7785 7.18853C18.2086 5.68419 17.7074 4.27519 16.7045 3.98844ZM1.46929 3.73078C0.434454 3.97734 -0.0911723 5.3941 0.322454 6.8986C0.680363 8.38718 2.00138 10.0909 3.03622 9.84429C4.07105 9.59774 4.3819 7.45658 4.02399 5.96801C3.66608 4.47944 2.50413 3.48422 1.46929 3.73078Z" fill="#D95323"/>
</svg>
